<svg width="51" height="51" viewBox="0 0 51 51" fill="none" xmlns="http://www.w3.org/2000/svg">
<path d="M34.2495 9.24313L41.3205 16.3156M28 47.999H48M3 48L3.11863 47.1696C3.5384 44.2305 3.7483 42.761 4.22572 41.389C4.64937 40.1717 5.2281 39.014 5.94765 37.9445C6.75852 36.7393 7.80798 35.6896 9.90685 33.5904L39.0267 4.46474C40.9795 2.51176 44.1453 2.51174 46.098 4.46474C48.0505 6.41775 48.0505 9.58419 46.098 11.5372L16.4436 41.1972C14.5395 43.1018 13.5874 44.054 12.503 44.8114C11.5404 45.4835 10.5023 46.0404 9.40995 46.4705C8.17928 46.9548 6.85938 47.2211 4.21983 47.754L3 48Z" stroke="#917B9F" stroke-width="5.33333" stroke-linecap="round" stroke-linejoin="round"/>
</svg>
